<svg xmlns="http://www.w3.org/2000/svg" width="140" height="138" viewBox="0 0 140 138" fill="none">
    <path d="M51.6578 0.445857C38.2968 4.07361 26.3117 11.5819 17.2179 22.0212C8.12416 32.4605 2.33025 45.362 0.568839 59.0942C-1.19257 72.8264 1.15765 86.7725 7.32228 99.169C13.4869 111.565 23.1891 121.856 35.2019 128.738C47.2148 135.62 60.9987 138.786 74.8106 137.835C88.6226 136.883 101.842 131.857 112.798 123.393C123.753 114.928 131.953 103.405 136.36 90.2801C140.766 77.1554 141.182 63.0187 137.554 49.6578L129.354 51.8843C132.541 63.6234 132.176 76.044 128.304 87.5755C124.432 99.1069 117.228 109.231 107.603 116.668C97.9769 124.106 86.362 128.521 74.2267 129.357C62.0914 130.193 49.9807 127.412 39.4261 121.365C28.8715 115.318 20.3471 106.277 14.9308 95.3853C9.5145 84.4937 7.44958 72.2405 8.99717 60.1753C10.5448 48.11 15.6353 36.7747 23.6252 27.6026C31.615 18.4305 42.1453 11.8337 53.8843 8.64633L51.6578 0.445857Z" fill="#FFE000"/>
</svg>